<svg xmlns="http://www.w3.org/2000/svg" viewBox="0 0 200 280"><path d="M24 34 V246 C24 270 176 270 176 246 V34" fill="#2E4F70" stroke="#121212" stroke-width="7"/><ellipse cx="100" cy="34" rx="76" ry="20" fill="#1C3350" stroke="#121212" stroke-width="7"/><path d="M24 100 C24 124 176 124 176 100 M24 180 C24 204 176 204 176 180" fill="none" stroke="#121212" stroke-width="7"/><ellipse cx="128" cy="30" rx="12" ry="5" fill="#121212"/><path d="M100 130 C86 152 80 162 80 172 C80 184 90 192 100 192 C110 192 120 184 120 172 C120 162 114 152 100 130 Z" fill="#F2C94C" stroke="#121212" stroke-width="5"/><path d="M44 60 V230" stroke="#4E6F92" stroke-width="10" stroke-linecap="round" opacity="0.7"/></svg>